<?xml version="1.0" encoding="UTF-8" standalone="no"?>
<!-- Created with Inkscape (http://www.inkscape.org/) -->

<svg
   xmlns:dc="http://purl.org/dc/elements/1.1/"
   xmlns:cc="http://creativecommons.org/ns#"
   xmlns:rdf="http://www.w3.org/1999/02/22-rdf-syntax-ns#"
   xmlns:svg="http://www.w3.org/2000/svg"
   xmlns="http://www.w3.org/2000/svg"
   xmlns:sodipodi="http://sodipodi.sourceforge.net/DTD/sodipodi-0.dtd"
   xmlns:inkscape="http://www.inkscape.org/namespaces/inkscape"
   width="1080"
   height="1920"
   viewBox="0 0 285.74999 508.00001"
   version="1.1"
   id="svg4574"
   inkscape:version="0.92.3 (2405546, 2018-03-11)"
   sodipodi:docname="Button Logos.svg"
   inkscape:export-filename="C:\Users\Simpu\Desktop\Money Upgrade Icon.png"
   inkscape:export-xdpi="97.440048"
   inkscape:export-ydpi="97.440048">
  <defs
     id="defs4568">
    <inkscape:perspective
       sodipodi:type="inkscape:persp3d"
       inkscape:vp_x="0 : 254 : 1"
       inkscape:vp_y="0 : 1000 : 0"
       inkscape:vp_z="285.74999 : 254 : 1"
       inkscape:persp3d-origin="142.875 : 169.33334 : 1"
       id="perspective5140" />
  </defs>
  <sodipodi:namedview
     id="base"
     pagecolor="#ffffff"
     bordercolor="#666666"
     borderopacity="1.0"
     inkscape:pageopacity="0.0"
     inkscape:pageshadow="2"
     inkscape:zoom="1.2648148"
     inkscape:cx="679.86057"
     inkscape:cy="195.98587"
     inkscape:document-units="mm"
     inkscape:current-layer="layer1"
     showgrid="false"
     units="px"
     inkscape:pagecheckerboard="true"
     inkscape:window-width="1920"
     inkscape:window-height="1017"
     inkscape:window-x="1592"
     inkscape:window-y="-8"
     inkscape:window-maximized="1"
     objecttolerance="20"
     inkscape:snap-perpendicular="true"
     inkscape:snap-tangential="true"
     inkscape:snap-path-clip="true"
     inkscape:snap-path-mask="true"
     inkscape:snap-bbox="true"
     inkscape:bbox-paths="true"
     inkscape:bbox-nodes="true"
     inkscape:snap-bbox-edge-midpoints="true"
     inkscape:snap-bbox-midpoints="true"
     inkscape:object-paths="false"
     inkscape:snap-intersection-paths="true"
     inkscape:snap-smooth-nodes="true"
     inkscape:snap-midpoints="true"
     inkscape:snap-object-midpoints="true"
     inkscape:snap-center="true"
     inkscape:snap-page="true"
     inkscape:snap-text-baseline="true" />
  <metadata
     id="metadata4571">
    <rdf:RDF>
      <cc:Work
         rdf:about="">
        <dc:format>image/svg+xml</dc:format>
        <dc:type
           rdf:resource="http://purl.org/dc/dcmitype/StillImage" />
        <dc:title />
      </cc:Work>
    </rdf:RDF>
  </metadata>
  <g
     inkscape:label="Layer 1"
     inkscape:groupmode="layer"
     id="layer1"
     transform="translate(0,211.00002)">
    <rect
       style="fill:#ffdd55;fill-opacity:1;stroke-width:0.26458332"
       id="rect4576"
       width="52.916668"
       height="52.916668"
       x="52.916668"
       y="244.08331"
       inkscape:export-xdpi="96"
       inkscape:export-ydpi="96"
       inkscape:export-filename="C:\Users\Simpu\Timer Cover Icon.png" />
    <rect
       y="244.08331"
       x="0"
       height="52.916668"
       width="52.916668"
       id="rect4578"
       style="fill:none;fill-opacity:1;stroke-width:0.26458332"
       inkscape:export-xdpi="96"
       inkscape:export-ydpi="96" />
    <rect
       y="244.08331"
       x="105.83334"
       height="52.916668"
       width="52.916668"
       id="rect4580"
       style="fill:none;fill-opacity:1;stroke-width:0.26458332"
       inkscape:export-xdpi="96"
       inkscape:export-ydpi="96" />
    <path
       style="fill:none;stroke:#feffff;stroke-width:14.45470047;stroke-linecap:square;stroke-linejoin:miter;stroke-miterlimit:4;stroke-dasharray:none;stroke-opacity:1"
       d="m 10.574098,269.6399 c 4.250408,4.24652 8.518678,8.71331 10.71638,11.52996 5.02419,-6.25692 15.79157,-17.72457 20.781868,-22.30865"
       id="path5125"
       inkscape:connector-curvature="0"
       sodipodi:nodetypes="ccc"
       inkscape:export-xdpi="96"
       inkscape:export-ydpi="96" />
    <ellipse
       style="fill:#fffff9;fill-opacity:1;stroke:#feffff;stroke-width:0;stroke-linecap:square;stroke-miterlimit:4;stroke-dasharray:none;stroke-opacity:1"
       id="path5127"
       cx="79.37072"
       cy="270.54163"
       rx="14.073916"
       ry="14.073915"
       inkscape:export-xdpi="96"
       inkscape:export-ydpi="96"
       inkscape:export-filename="C:\Users\Simpu\Timer Cover Icon.png" />
    <ellipse
       ry="18.792456"
       rx="18.792458"
       cy="270.54163"
       cx="79.37072"
       id="ellipse5138"
       style="fill:none;fill-opacity:1;stroke:#feffff;stroke-width:5.71944475;stroke-linecap:square;stroke-miterlimit:4;stroke-dasharray:none;stroke-opacity:1"
       inkscape:export-xdpi="96"
       inkscape:export-ydpi="96"
       inkscape:export-filename="C:\Users\Simpu\Timer Cover Icon.png" />
    <rect
       style="fill:#feffff;fill-opacity:1;stroke:#feffff;stroke-width:0;stroke-linecap:square;stroke-miterlimit:4;stroke-dasharray:none;stroke-opacity:1"
       id="rect5156"
       width="15.336963"
       height="6.3152204"
       x="-147.15732"
       y="215.89052"
       inkscape:transform-center-x="18.56575"
       inkscape:transform-center-y="-18.048192"
       transform="rotate(-46.009486)"
       inkscape:export-xdpi="96"
       inkscape:export-ydpi="96"
       inkscape:export-filename="C:\Users\Simpu\Timer Cover Icon.png" />
    <rect
       transform="rotate(44.570908)"
       inkscape:transform-center-y="-18.381971"
       inkscape:transform-center-x="-18.235335"
       y="108.04073"
       x="238.76358"
       height="6.3152204"
       width="15.336963"
       id="rect5158"
       style="fill:#feffff;fill-opacity:1;stroke:#feffff;stroke-width:0;stroke-linecap:square;stroke-miterlimit:4;stroke-dasharray:none;stroke-opacity:1"
       inkscape:export-xdpi="96"
       inkscape:export-ydpi="96"
       inkscape:export-filename="C:\Users\Simpu\Timer Cover Icon.png" />
    <ellipse
       id="path38"
       cx="132.29167"
       cy="270.54163"
       rx="17.374311"
       ry="17.374302"
       style="fill:none;stroke:#fffffa;stroke-width:5.29166667;stroke-miterlimit:4;stroke-dasharray:none;stroke-opacity:1"
       inkscape:export-xdpi="96"
       inkscape:export-ydpi="96" />
    <rect
       style="fill:#ffffff;fill-opacity:1;stroke-width:0.04704951"
       id="rect845"
       width="5.2916665"
       height="16.733156"
       x="129.64586"
       y="244.26607"
       inkscape:transform-center-y="-18.35547"
       inkscape:export-xdpi="96"
       inkscape:export-ydpi="96" />
    <rect
       inkscape:transform-center-y="3.164444e-006"
       y="-158.66647"
       x="268.34229"
       height="16.733156"
       width="5.2916665"
       id="rect847"
       style="fill:#ffffff;fill-opacity:1;stroke-width:0.04704951"
       transform="rotate(90)"
       inkscape:transform-center-x="-18.355463"
       inkscape:export-xdpi="96"
       inkscape:export-ydpi="96" />
    <rect
       inkscape:transform-center-x="1.0164444e-005"
       transform="scale(-1)"
       style="fill:#ffffff;fill-opacity:1;stroke-width:0.04704951"
       id="rect849"
       width="5.2916665"
       height="16.733156"
       x="-134.93752"
       y="-296.86679"
       inkscape:transform-center-y="18.355451"
       inkscape:export-xdpi="96"
       inkscape:export-ydpi="96" />
    <rect
       inkscape:transform-center-y="-6.9056547e-006"
       y="106.01614"
       x="-273.68356"
       height="16.733156"
       width="5.2916665"
       id="rect851"
       style="fill:#ffffff;fill-opacity:1;stroke-width:0.04704951"
       transform="rotate(-90)"
       inkscape:transform-center-x="18.355458"
       inkscape:export-xdpi="96"
       inkscape:export-ydpi="96" />
    <rect
       inkscape:export-filename="C:\Users\Simpu\Build Icon.png"
       inkscape:export-ydpi="96"
       inkscape:export-xdpi="96"
       y="244.08331"
       x="158.75"
       height="52.916668"
       width="52.916668"
       id="rect834"
       style="fill:none;fill-opacity:1;stroke-width:0.26458332" />
    <rect
       style="fill:#ffffff;fill-opacity:1;stroke:#fffffa;stroke-width:0;stroke-miterlimit:4;stroke-dasharray:none;stroke-opacity:1"
       id="rect836"
       width="49.457241"
       height="22.101772"
       x="275.36771"
       y="112.15482"
       ry="2.2833927"
       transform="rotate(32.869132)"
       inkscape:export-filename="C:\Users\Simpu\Build Icon.png"
       inkscape:export-xdpi="96"
       inkscape:export-ydpi="96" />
    <rect
       style="fill:#ffffff;fill-opacity:1;stroke:#fffffa;stroke-width:0;stroke-miterlimit:4;stroke-dasharray:none;stroke-opacity:1"
       id="rect838"
       width="10.980513"
       height="51.896"
       x="296.5394"
       y="101.64266"
       ry="2.2231183"
       transform="rotate(33.422945)"
       inkscape:export-filename="C:\Users\Simpu\Build Icon.png"
       inkscape:export-xdpi="96"
       inkscape:export-ydpi="96" />
    <rect
       inkscape:export-filename="C:\Users\Simpu\Timer Cover Icon.png"
       inkscape:export-ydpi="96"
       inkscape:export-xdpi="96"
       y="191.16664"
       x="0"
       height="52.916668"
       width="26.458334"
       id="rect840"
       style="fill:none;fill-opacity:1;stroke-width:0.18708865" />
    <rect
       style="fill:none;fill-opacity:1;stroke:#fffffa;stroke-width:0;stroke-miterlimit:4;stroke-dasharray:none;stroke-opacity:1"
       id="rect842"
       width="52.916653"
       height="52.916641"
       x="211.66667"
       y="244.08331"
       ry="0"
       inkscape:export-xdpi="96.480042"
       inkscape:export-ydpi="96.480042"
       inkscape:export-filename="C:\Users\Simpu\Desktop\Money Upgrade Icon.png" />
    <path
       style="fill:#ffffff;fill-opacity:1;stroke:#fffffa;stroke-width:0;stroke-miterlimit:4;stroke-dasharray:none;stroke-opacity:1"
       d="M 900 1731.625 A 88.374968 88.374991 0 0 0 811.625 1820 A 88.374968 88.374991 0 0 0 900 1908.375 A 88.374968 88.374991 0 0 0 909.32617 1907.8574 C 910.4727 1908.1882 911.68165 1908.375 912.9375 1908.375 L 975.4375 1908.375 C 982.60488 1908.375 988.375 1902.6049 988.375 1895.4375 L 988.375 1832.9375 C 988.375 1831.6085 988.17553 1830.3281 987.80664 1829.123 A 88.374968 88.374991 0 0 0 988.375 1820 A 88.374968 88.374991 0 0 0 900 1731.625 z M 900 1777.3594 A 42.64092 42.640931 0 0 1 942.64062 1820 L 912.9375 1820 C 905.77012 1820 900 1825.7701 900 1832.9375 L 900 1862.6406 A 42.64092 42.640931 0 0 1 857.35938 1820 A 42.64092 42.640931 0 0 1 900 1777.3594 z M 936.10352 1834.25 L 952.27148 1834.25 C 953.67901 1834.25 954.8125 1835.3835 954.8125 1836.791 L 954.8125 1853.5625 L 971.58398 1853.5625 C 972.99151 1853.5625 974.125 1854.696 974.125 1856.1035 L 974.125 1872.2715 C 974.125 1873.679 972.99151 1874.8125 971.58398 1874.8125 L 954.8125 1874.8125 L 954.8125 1891.584 C 954.8125 1892.9915 953.67901 1894.125 952.27148 1894.125 L 936.10352 1894.125 C 934.69599 1894.125 933.5625 1892.9915 933.5625 1891.584 L 933.5625 1874.8125 L 916.79102 1874.8125 C 915.38349 1874.8125 914.25 1873.679 914.25 1872.2715 L 914.25 1856.1035 C 914.25 1854.696 915.38349 1853.5625 916.79102 1853.5625 L 933.5625 1853.5625 L 933.5625 1836.791 C 933.5625 1835.3835 934.69599 1834.25 936.10352 1834.25 z "
       transform="matrix(0.26458333,0,0,0.26458333,0,-211.00002)"
       id="path844"
       inkscape:export-filename="C:\Users\Simpu\Desktop\Money Upgrade Icon.png"
       inkscape:export-xdpi="96.480042"
       inkscape:export-ydpi="96.480042" />
    <rect
       style="fill:none;fill-opacity:1;stroke:#b9c000;stroke-width:0;stroke-linecap:round;stroke-miterlimit:4;stroke-dasharray:none;stroke-opacity:1"
       id="rect899"
       width="52.916664"
       height="52.916664"
       x="52.916668"
       y="191.16664"
       inkscape:export-filename="C:\Users\Simpu\Desktop\Fuel Upgrade Icon.png"
       inkscape:export-xdpi="97.440048"
       inkscape:export-ydpi="97.440048" />
    <path
       style="fill:#ffffff;fill-opacity:1;stroke:#fffffa;stroke-width:0;stroke-miterlimit:4;stroke-dasharray:none;stroke-opacity:1"
       d="m 79.374999,193.74633 c -6.172701,17.61685 -23.878645,18.47806 -23.878645,32.47496 a 23.878639,15.282324 0 0 0 23.878645,15.28233 23.878639,15.282324 0 0 0 2.694275,-0.10633 c 0.273086,0.0669 0.557302,0.10633 0.851611,0.10633 h 16.786874 c 1.964371,0 3.545881,-1.58151 3.545881,-3.54588 v -11.73645 -5.05043 c 0,-1.8515 -1.40518,-3.36154 -3.21149,-3.5291 -5.479239,-6.67883 -16.451152,-10.93267 -20.667151,-23.89543 z m 9.839681,28.04248 h 4.199284 c 0.36557,0 0.659927,0.29438 0.659927,0.65994 v 4.35599 h 4.355988 c 0.365575,0 0.659927,0.29435 0.659927,0.65991 v 4.1993 c 0,0.36555 -0.294352,0.65991 -0.659927,0.65991 h -4.355988 v 4.35599 c 0,0.36558 -0.294357,0.65993 -0.659927,0.65993 H 89.21468 c -0.365571,0 -0.659927,-0.29435 -0.659927,-0.65993 v -4.35599 h -4.355988 c -0.365568,0 -0.659927,-0.29436 -0.659927,-0.65991 v -4.1993 c 0,-0.36556 0.294359,-0.65991 0.659927,-0.65991 h 4.355988 v -4.35599 c 0,-0.36556 0.294356,-0.65994 0.659927,-0.65994 z"
       id="path849"
       inkscape:connector-curvature="0"
       inkscape:export-filename="C:\Users\Simpu\Desktop\Fuel Upgrade Icon.png"
       inkscape:export-xdpi="97.440048"
       inkscape:export-ydpi="97.440048" />
    <path
       style="color:#000000;font-style:normal;font-variant:normal;font-weight:normal;font-stretch:normal;font-size:medium;line-height:normal;font-family:sans-serif;font-variant-ligatures:normal;font-variant-position:normal;font-variant-caps:normal;font-variant-numeric:normal;font-variant-alternates:normal;font-feature-settings:normal;text-indent:0;text-align:start;text-decoration:none;text-decoration-line:none;text-decoration-style:solid;text-decoration-color:#000000;letter-spacing:normal;word-spacing:normal;text-transform:none;writing-mode:lr-tb;direction:ltr;text-orientation:mixed;dominant-baseline:auto;baseline-shift:baseline;text-anchor:start;white-space:normal;shape-padding:0;clip-rule:nonzero;display:inline;overflow:visible;visibility:visible;opacity:1;isolation:auto;mix-blend-mode:normal;color-interpolation:sRGB;color-interpolation-filters:linearRGB;solid-color:#000000;solid-opacity:1;vector-effect:none;fill:#000000;fill-opacity:1;fill-rule:nonzero;stroke:#b9c000;stroke-width:5.29166651;stroke-linecap:round;stroke-linejoin:miter;stroke-miterlimit:4;stroke-dasharray:none;stroke-dashoffset:0;stroke-opacity:1;color-rendering:auto;image-rendering:auto;shape-rendering:auto;text-rendering:auto;enable-background:accumulate"
       d="m 285.86088,224.38179 -14.55274,10.28711 a 5.2921958,5.2921958 0 1 0 6.10938,8.64258 l 8.46484,-5.98438 8.25977,5.79688 a 5.2922866,5.2922866 0 1 0 6.08007,-8.66406 z"
       id="path867-0"
       inkscape:connector-curvature="0" />
  </g>
</svg>
